<?xml version="1.0" standalone="no"?>
<!DOCTYPE svg PUBLIC "-//W3C//DTD SVG 20010904//EN"
 "http://www.w3.org/TR/2001/REC-SVG-20010904/DTD/svg10.dtd">
<svg version="1.0" xmlns="http://www.w3.org/2000/svg"
 width="354.000000pt" height="274.000000pt" viewBox="0 0 354.000000 274.000000"
 preserveAspectRatio="xMidYMid meet">

<g transform="translate(0.000000,274.000000) scale(0.100000,-0.100000)"
fill="#000000" stroke="none">
<path d="M1597 2436 c-16 -16 -16 -19 0 -49 9 -18 19 -48 22 -67 l6 -35 28 48
c15 26 30 47 33 47 7 0 -68 -145 -78 -148 -5 -2 -29 -45 -54 -95 -25 -51 -35
-80 -24 -65 54 70 59 69 21 -7 -22 -44 -54 -105 -71 -135 -25 -44 -30 -49 -26
-25 5 23 -1 17 -24 -25 -22 -41 -29 -49 -30 -32 0 23 0 23 -30 5 -30 -17 -31
-19 -28 -86 l3 -67 28 32 c16 20 1 -15 -39 -87 -67 -121 -91 -158 -79 -120 4
11 -14 -16 -38 -59 -60 -105 -50 -128 15 -36 27 38 52 70 54 70 3 0 3 -3 1 -7
-2 -5 -35 -61 -72 -125 -56 -100 -70 -118 -91 -118 -17 0 -24 -6 -24 -20 0
-32 86 -68 114 -47 8 7 26 41 41 77 14 36 39 77 55 91 37 31 72 126 57 150 -8
13 16 76 106 280 99 225 121 267 149 287 18 12 36 32 40 45 3 12 6 -29 5 -91
l-2 -114 -38 -13 c-50 -17 -84 -49 -98 -94 -6 -20 -14 -40 -17 -45 -2 -4 -6
-30 -8 -57 -12 -146 128 -244 256 -179 54 28 83 72 88 137 l5 54 -29 -8 c-40
-10 -234 -8 -261 3 -15 6 14 8 88 6 107 -4 199 10 199 29 0 5 -11 33 -24 62
-24 55 -62 88 -118 101 l-28 6 0 152 c0 89 4 148 9 143 25 -27 264 -503 263
-523 -2 -28 22 -78 41 -85 8 -3 60 -96 116 -206 56 -110 110 -205 120 -210 12
-7 26 -5 47 5 70 36 71 56 9 159 -69 115 -79 123 -41 33 9 -21 14 -38 12 -38
-6 0 -276 398 -276 407 0 4 30 -22 67 -57 36 -36 60 -54 52 -40 -9 14 -32 53
-52 86 -20 34 -37 73 -37 87 0 25 -48 142 -49 120 -1 -23 -16 -14 -35 22 -22
41 -31 41 -16 0 21 -56 2 -32 -72 88 -98 160 -97 158 -53 117 l37 -35 -55 90
-54 91 23 52 c21 48 22 53 6 68 -15 15 -18 14 -44 -15 l-28 -31 -28 31 c-26
30 -29 30 -45 15z m73 -246 c0 -20 -5 -30 -15 -30 -18 0 -18 2 -3 35 15 32 18
32 18 -5z m83 -317 c26 -13 67 -66 67 -88 0 -6 -41 -11 -97 -13 -103 -3 -173
-16 -173 -33 0 -6 -4 -7 -10 -4 -20 12 -9 24 33 34 l42 11 -42 -5 c-48 -6 -49
-5 -29 33 43 82 125 107 209 65z m-123 -324 c56 -15 106 -6 156 27 l39 25 -37
-35 c-40 -38 -88 -52 -142 -42 -39 8 -97 44 -104 66 -3 10 3 7 19 -7 13 -12
44 -27 69 -34z"/>
<path d="M1658 1783 c12 -2 30 -2 40 0 9 3 -1 5 -23 4 -22 0 -30 -2 -17 -4z"/>
<path d="M1830 1531 c0 -7 -18 -30 -40 -52 -57 -57 -53 -77 8 -39 l47 29 9
-30 c6 -21 6 -41 -1 -60 -10 -25 -9 -29 5 -29 10 0 24 5 32 10 12 8 16 2 21
-28 l5 -37 12 28 c7 16 12 47 12 69 l0 41 -23 -21 c-28 -26 -52 -29 -43 -6 3
9 1 35 -5 57 -11 43 -39 91 -39 68z"/>
<path d="M1482 1478 c0 -18 -2 -51 -6 -73 -6 -34 -3 -47 18 -77 l24 -37 -36
-15 c-20 -8 -29 -15 -19 -15 10 -1 31 6 46 14 16 8 32 11 35 7 4 -4 -10 -15
-31 -25 -28 -13 -31 -16 -11 -12 14 3 34 8 45 11 10 3 -2 -7 -27 -24 -40 -26
-46 -27 -54 -13 -22 38 -46 40 -46 3 0 -31 25 -72 44 -72 7 0 56 17 108 39
l95 39 44 -55 c24 -30 45 -50 47 -43 2 6 -2 17 -10 23 -21 18 -45 52 -30 43
15 -9 15 -2 1 27 -5 12 6 4 26 -18 26 -29 33 -33 24 -15 l-12 25 27 -24 26
-25 -22 -23 c-12 -12 -19 -26 -15 -29 10 -10 41 5 55 26 11 18 10 25 -8 47
-11 14 -19 28 -17 29 2 2 35 -5 73 -16 38 -11 72 -20 76 -20 10 0 31 70 23 78
-3 4 -14 -3 -23 -14 -17 -22 -17 -22 -67 -3 -48 19 -49 19 -12 15 23 -3 35 -1
31 5 -3 6 4 7 20 3 38 -9 32 10 -8 25 -27 11 -32 18 -28 35 5 20 4 20 -15 3
-17 -14 -25 -15 -52 -6 -27 10 -32 15 -26 33 4 11 9 32 12 46 l4 25 -23 -26
c-13 -14 -28 -34 -34 -44 -7 -14 -23 -19 -59 -19 -43 -1 -49 2 -54 22 l-6 24
-19 -21 c-23 -25 -39 -26 -60 -5 -13 12 -16 12 -16 2 0 -8 5 -19 12 -26 18
-18 -7 -40 -30 -26 -27 18 -36 66 -21 113 14 41 15 41 37 25 13 -9 27 -26 32
-39 11 -28 45 -24 61 7 11 21 27 16 39 -16 8 -18 9 -17 9 12 1 23 -7 41 -26
60 l-28 27 -3 -25 c-4 -25 -19 -50 -31 -50 -3 0 -11 10 -16 22 -10 21 -69 68
-86 68 -5 0 -8 -15 -7 -32z"/>
<path d="M357 630 c-53 -92 -97 -172 -97 -177 0 -6 12 -14 27 -18 16 -3 38
-16 50 -27 13 -12 25 -20 27 -17 2 2 37 62 77 134 60 105 74 137 73 170 -1 41
-24 89 -48 98 -8 3 -48 -56 -109 -163z"/>
<path d="M870 789 c0 -26 32 -76 59 -92 18 -10 50 -17 83 -17 82 0 83 -4 43
-103 -19 -48 -35 -89 -35 -92 0 -3 30 -5 67 -3 l66 3 59 140 c32 77 61 148 64
158 5 16 -9 17 -200 17 -143 0 -206 -3 -206 -11z"/>
<path d="M1513 785 c-61 -26 -64 -42 -61 -364 l3 -289 35 12 c20 6 44 25 57
45 23 33 23 39 23 322 0 314 3 300 -57 274z"/>
<path d="M1600 740 l0 -60 75 0 c87 0 127 16 150 60 30 58 27 60 -105 60
l-120 0 0 -60z"/>
<path d="M2028 784 c-55 -29 -58 -46 -58 -364 0 -159 2 -290 5 -290 25 0 78
35 95 62 19 31 20 50 20 321 0 267 -1 287 -17 287 -10 -1 -30 -7 -45 -16z"/>
<path d="M2294 781 c-52 -32 -55 -49 -52 -362 l3 -287 35 12 c20 6 44 25 57
45 23 33 23 39 23 322 0 269 -1 289 -17 289 -10 0 -32 -9 -49 -19z"/>
<path d="M2390 740 l0 -60 51 0 c83 0 89 -7 89 -103 0 -51 -5 -88 -12 -95 -7
-7 -38 -12 -70 -12 l-58 0 0 -60 0 -60 85 0 c98 0 128 11 156 57 19 30 20 46
17 179 l-3 146 -37 34 c-37 33 -39 34 -128 34 l-90 0 0 -60z"/>
<path d="M2854 781 c-52 -32 -55 -49 -52 -362 l3 -287 35 12 c20 6 44 25 57
45 23 33 23 39 23 322 0 269 -1 289 -17 289 -10 0 -32 -9 -49 -19z"/>
<path d="M2950 740 l0 -60 75 0 c87 0 127 16 150 60 30 58 27 60 -105 60
l-120 0 0 -60z"/>
<path d="M540 685 c0 -16 -12 -53 -26 -81 l-26 -51 47 -82 c43 -73 65 -98 65
-72 0 5 20 19 45 31 l45 22 -29 51 c-16 29 -50 88 -75 132 -40 69 -46 76 -46
50z"/>
<path d="M1600 410 l0 -60 51 0 c61 0 103 22 124 66 25 53 23 54 -80 54 l-95
0 0 -60z"/>
<path d="M2950 410 l0 -60 80 0 c73 0 81 2 95 24 19 29 11 72 -15 86 -10 6
-50 10 -89 10 l-71 0 0 -60z"/>
<path d="M941 303 c-34 -82 -61 -154 -61 -160 0 -10 47 -13 200 -13 l200 0 0
24 c0 27 -31 70 -63 88 -12 7 -52 15 -89 18 l-67 5 39 93 39 92 -68 0 -68 0
-62 -147z"/>
<path d="M240 323 c0 -81 4 -104 20 -131 17 -27 70 -62 95 -62 3 0 5 46 5 103
0 110 -13 146 -62 173 -53 30 -58 23 -58 -83z"/>
<path d="M651 407 c-52 -27 -66 -60 -69 -174 l-4 -105 24 7 c87 27 108 65 108
194 0 99 -5 106 -59 78z"/>
<path d="M384 334 c3 -9 6 -36 6 -60 l0 -44 84 0 84 0 4 60 3 60 -94 0 c-81 0
-92 -2 -87 -16z"/>
<path d="M2587 338 c-10 -5 -39 -13 -63 -16 l-45 -7 53 -84 c29 -46 58 -86 65
-88 19 -6 53 57 53 97 0 19 -10 52 -23 72 -18 31 -25 35 -40 26z"/>
<path d="M2937 223 c-4 -20 -19 -49 -33 -65 l-28 -28 157 0 c176 0 178 1 137
68 -27 44 -74 62 -158 62 l-69 0 -6 -37z"/>
</g>
</svg>
