<?xml version="1.0" standalone="no"?>
<!DOCTYPE svg PUBLIC "-//W3C//DTD SVG 20010904//EN"
 "http://www.w3.org/TR/2001/REC-SVG-20010904/DTD/svg10.dtd">
<svg version="1.0" xmlns="http://www.w3.org/2000/svg"
 width="201.000000pt" height="171.000000pt" viewBox="0 0 201.000000 171.000000"
 preserveAspectRatio="xMidYMid meet">

<g transform="translate(0.000000,171.000000) scale(0.100000,-0.100000)"
fill="#000000" stroke="none">
<path d="M0 855 l0 -855 1005 0 1005 0 0 855 0 855 -1005 0 -1005 0 0 -855z
m917 585 c79 -45 107 -88 111 -172 6 -92 -11 -146 -69 -225 -51 -68 -60 -102
-33 -123 12 -11 24 -11 65 2 59 19 62 12 20 -53 -60 -94 -122 -129 -224 -129
-55 0 -70 4 -105 29 -51 38 -85 135 -64 190 l9 25 6 -30 c7 -37 44 -91 79
-117 39 -29 46 -14 13 25 -63 74 -77 144 -50 234 29 96 13 184 -32 184 -25 0
-8 24 23 32 35 10 76 2 126 -23 48 -25 69 -57 70 -108 0 -23 2 -41 4 -41 2 0
13 19 25 43 35 67 32 148 -8 225 -17 34 -29 62 -25 62 4 0 30 -14 59 -30z
m238 -124 c14 -27 28 -72 31 -99 l7 -49 46 7 c25 3 54 8 64 11 15 5 17 -4 17
-89 0 -307 -197 -486 -480 -436 l-75 13 50 7 c60 8 117 31 162 65 87 66 209
318 146 300 -10 -2 -36 -7 -59 -11 l-41 -6 36 72 c43 87 53 179 27 258 -9 28
-16 53 -16 57 0 19 63 -55 85 -100z m449 -545 c17 -19 17 -20 -11 -23 -34 -4
-43 -33 -16 -53 25 -20 33 -18 33 5 0 23 22 27 39 6 9 -11 7 -15 -9 -19 -11
-3 -20 -10 -20 -15 0 -13 56 -35 69 -27 14 8 14 52 1 60 -17 11 -11 23 10 18
26 -7 47 -32 33 -41 -5 -4 -22 -28 -37 -55 l-28 -47 -30 25 c-16 14 -36 25
-44 25 -8 0 -14 5 -14 11 0 5 5 7 10 4 6 -3 10 -1 10 5 0 7 -8 9 -19 5 -11 -3
-22 -1 -26 5 -3 5 -15 10 -26 10 -25 0 -24 4 11 57 17 24 30 48 30 54 0 15 16
10 34 -10z m-1203 -38 c7 -16 15 -31 17 -36 2 -4 -3 -5 -11 -2 -8 4 -20 -4
-29 -17 -8 -13 -29 -38 -47 -57 -17 -18 -31 -39 -31 -47 0 -23 -14 -16 -32 15
-15 28 -15 29 3 34 25 7 24 20 -5 54 -22 25 -25 26 -31 10 -6 -14 -10 -15 -21
-6 -16 13 -19 34 -5 24 5 -3 29 1 53 9 24 8 58 17 76 21 17 4 32 11 32 16 0
18 17 8 31 -18z m79 -111 c0 -5 20 -23 45 -42 47 -35 56 -50 30 -50 -8 0 -31
-7 -52 -16 -21 -9 -53 -23 -72 -31 -32 -13 -33 -15 -18 -31 14 -14 22 -14 47
-5 35 13 38 5 10 -25 l-20 -21 -48 44 c-26 25 -50 45 -54 45 -5 0 -8 5 -8 11
0 5 5 7 10 4 6 -4 30 3 53 14 23 11 54 23 70 27 36 8 44 24 22 40 -16 12 -22
12 -42 -1 -27 -18 -30 -9 -7 23 15 22 34 30 34 14z m1021 -22 c11 -6 19 -21
19 -35 0 -15 6 -25 14 -25 7 0 19 -7 26 -15 7 -8 21 -15 32 -15 19 0 19 -1 -3
-19 -21 -18 -26 -18 -44 -5 -33 24 -46 27 -57 16 -13 -13 6 -40 36 -51 17 -7
16 -10 -13 -30 -24 -17 -31 -19 -31 -8 0 9 -13 27 -30 40 -16 14 -30 32 -29
39 0 10 2 10 6 1 2 -7 9 -13 15 -13 6 0 6 6 -2 15 -7 8 -16 13 -20 10 -4 -3
-13 2 -20 10 -7 8 -20 15 -28 15 -10 0 0 15 27 40 44 41 68 48 102 30z m-177
-105 c-3 -8 3 -27 13 -42 11 -15 25 -42 32 -60 7 -18 20 -34 29 -35 12 -3 8
-9 -15 -21 -32 -17 -52 -22 -40 -11 8 8 -61 142 -76 147 -7 2 2 11 18 20 38
20 46 21 39 2z m-645 -14 c25 -13 30 -19 18 -24 -11 -4 -17 -28 -22 -91 l-7
-85 -29 15 c-25 12 -28 18 -19 34 9 16 6 22 -20 35 -33 17 -55 12 -46 -11 7
-18 -6 -18 -30 2 -10 8 -14 13 -8 10 13 -6 114 98 114 118 0 20 7 20 49 -3z
m557 -46 c9 -35 -2 -42 -23 -16 -34 41 -73 -4 -43 -49 9 -13 12 -13 24 2 16
21 26 13 26 -20 0 -21 -2 -23 -15 -12 -9 7 -18 10 -21 7 -11 -10 7 -67 24 -77
14 -8 14 -9 2 -10 -8 0 -25 -3 -36 -6 -18 -5 -22 0 -29 33 -4 21 -10 42 -13
48 -4 5 -8 21 -10 35 -1 14 -10 30 -18 36 -12 10 -3 16 48 32 80 26 77 26 84
-3z m-417 -1 c25 -5 29 -9 20 -20 -14 -17 -31 -85 -33 -131 -1 -23 -6 -33 -16
-32 -22 1 -67 17 -53 18 13 1 36 69 27 82 -2 4 0 10 6 14 5 3 10 -2 10 -11 0
-10 2 -15 5 -12 3 2 1 26 -4 51 -4 26 -5 47 -1 47 4 0 22 -3 39 -6z m217 -39
c15 -23 15 -27 0 -49 -10 -15 -12 -27 -6 -31 6 -3 10 -17 10 -30 0 -13 8 -29
18 -34 14 -8 10 -10 -20 -11 -33 0 -38 3 -38 23 0 30 -24 62 -38 53 -16 -9
-15 -49 0 -64 9 -9 2 -12 -31 -12 -34 0 -41 3 -33 13 14 16 14 138 0 154 -8
10 4 13 56 13 59 0 67 -3 82 -25z"/>
<path d="M303 713 c-24 -5 -29 -19 -13 -43 8 -13 15 -10 42 18 34 34 31 37
-29 25z"/>
<path d="M448 523 c7 -3 16 -2 19 1 4 3 -2 6 -13 5 -11 0 -14 -3 -6 -6z"/>
<path d="M1430 575 c-11 -14 -10 -20 12 -42 25 -25 48 -25 48 1 0 7 -11 22
-23 35 -22 20 -25 20 -37 6z"/>
<path d="M1310 434 c0 -6 7 -19 16 -30 14 -18 14 -18 3 6 -14 31 -19 36 -19
24z"/>
<path d="M612 427 c-26 -28 -28 -43 -6 -51 23 -9 23 -9 30 29 8 46 3 51 -24
22z"/>
<path d="M640 380 c0 -11 2 -20 4 -20 2 0 6 9 9 20 3 11 1 20 -4 20 -5 0 -9
-9 -9 -20z"/>
<path d="M1141 344 c0 -11 3 -14 6 -6 3 7 2 16 -1 19 -3 4 -6 -2 -5 -13z"/>
<path d="M954 396 c-11 -28 0 -61 21 -61 16 0 20 7 20 35 0 25 -5 36 -18 38
-9 2 -20 -3 -23 -12z"/>
<path d="M923 330 c0 -25 2 -35 4 -22 2 12 2 32 0 45 -2 12 -4 2 -4 -23z"/>
<path d="M1011 274 c0 -11 3 -14 6 -6 3 7 2 16 -1 19 -3 4 -6 -2 -5 -13z"/>
</g>
</svg>
